<?xml version="1.0" encoding="UTF-8"?>
<svg id="Layer_2" data-name="Layer 2" xmlns="http://www.w3.org/2000/svg" xmlns:xlink="http://www.w3.org/1999/xlink" viewBox="0 0 342.67 402.82">
  <defs>
    <style>
      .cls-1 {
        clip-path: url(#clippath);
      }

      .cls-2 {
        fill: none;
      }

      .cls-2, .cls-3, .cls-4, .cls-5, .cls-6, .cls-7, .cls-8, .cls-9, .cls-10, .cls-11, .cls-12, .cls-13, .cls-14 {
        stroke-width: 0px;
      }

      .cls-3, .cls-15 {
        fill: #b9874b;
      }

      .cls-4 {
        fill: #1c1a37;
      }

      .cls-16, .cls-13 {
        fill: #fff;
      }

      .cls-5 {
        fill: #6f6966;
      }

      .cls-6 {
        fill: #1d1d1b;
      }

      .cls-17, .cls-14 {
        fill: url(#Dégradé_sans_nom_14);
      }

      .cls-18 {
        clip-path: url(#clippath-4);
      }

      .cls-19 {
        clip-path: url(#clippath-2);
      }

      .cls-7 {
        fill: #3c3c3b;
      }

      .cls-8 {
        fill: #e41815;
      }

      .cls-9 {
        fill: #f39200;
      }

      .cls-10 {
        fill: #951914;
      }

      .cls-11 {
        fill: #959290;
      }

      .cls-12 {
        fill: #725741;
      }
    </style>
    <clipPath id="clippath">
      <path class="cls-3" d="M237.14,394.87c3.35-.19-2.44-10.61-3.44-11.73-3.84-4.3-9.4-7.24-15.22-7.46-3.82-.15-7.75.99-11.52,1.5-6.02.82-16.2,1.33-10.77-7.5,5.77-9.37,14.39-16.92,19.43-26.65,9.51-18.35-3.36-39.69-25.83-32.48-1.61.52-3.18,1.26-4.87,1.42-1.69.16-3.61-.45-4.33-1.95-.47-.98-.34-2.13-.05-3.18.95-3.47,3.24-6.21,6.15-8.23,10.21-7.1,21.88-12.84,33.59-17.49,12.07-4.8,24.57-8.59,36.15-14.55,4.48-2.3,8.92-5.03,11.89-9.11,2.81-3.86,4.08-8.81,3.48-13.55-.16-1.23-.47-2.52-1.37-3.38-1.06-1.01-2.71-1.16-4.12-.79-1.42.36-2.67,1.16-3.95,1.87-7.85,4.37-17.37,5.66-26.1,3.54-1.45-.35-2.91-.81-4.08-1.74-4.5-3.6-5.55-9.63-6.46-15.01-1-5.87-4.57-11.89-8.49-16.42-3.2-3.7-7.6-6.17-10.66-10.01-4.43-5.58-2.8-11.28.36-17.65,5.4-10.89,23-26.63,15.49-38.21-5.78-8.92-10.35-13.95-21.8-14.82-9.77-.74-20.38,2.5-26.37,10.47-9.53,12.68-12.26,28.75-19.66,42.49-1.29,2.39-2.64,4.68-4.11,6.83-14.43,21.16-38.7,31.9-56.76,49.78-17.87,17.68-27.71,41.92-29.63,66.47-1.38,17.68,2.39,34.78,8.81,51.21,1.64,4.2,9.75,16.33,5.37,19.82-4.21,3.35-15.76-4.29-18.45-7.03-.59-.6-1.2-1.26-2.03-1.42-2.37-.46-3.21,2.99-2.83,5.31,1.52,9.33,5.06,15.76,13.35,21.1,7.19,4.63,16.03,6.09,24.49,6.51l144.32-7.95Z"/>
    </clipPath>
    <linearGradient id="Dégradé_sans_nom_14" data-name="Dégradé sans nom 14" x1="1153.07" y1="-344.47" x2="1354.02" y2="-344.47" gradientTransform="translate(-959.04 824.76) rotate(-18.03)" gradientUnits="userSpaceOnUse">
      <stop offset=".39" stop-color="#b17f4a"/>
      <stop offset="1" stop-color="#bc894d"/>
    </linearGradient>
    <clipPath id="clippath-2">
      <path class="cls-14" d="M204.79,113.52c-6.22-11.61-10.38-23.22-17.47-34.37-7.73-12.15-15.8-24.33-26.38-34.33-11.31-10.7-25.77-17.7-40.61-22.88-14.84-5.18-30.26-8.53-45.21-13.39-3.01.27-8.47-2.32-11.36-3.25-4.23-1.36-7.77-2.95-11.5-5.3,5.58,12.57,11.01,24.92,20.62,35.27,10.22,11.01,23.19,19.38,37.77,23.76,13.32,4.01,26.36,9.96,39.46,14.83,11.38,4.23,21.25,12.31,29.03,21.3,7.2,8.32,15.21,18.98,16.51,30.06.89,7.55-6.65,2.83-10.59.28-10.55-6.85-18.14-17.05-27.68-25.05-9.39-7.88-20.21-13.94-31.61-18.6-22.81-9.32-47.47-13.18-71.7-17.3-9.58-1.63-18.95-4.19-28.09-7.39-4.61-1.61-9.11-2.43-13.34-4.72-2.07-1.12-12.17-5.29-12.65-7.45,1.27,5.66,3.69,10.83,5.98,16.13,13.02,30.17,40.37,49.65,73.72,51.77,17.58,1.12,34.68-2.62,52.14-2.97,13-.26,28.93.76,37.33,11.91,11.22,14.9,7.95,34.47,13.03,51.38,3.87,12.89,13.09,24.65,25.91,30.01,13.49,5.64,40.87,8.02,44.1-11.16,1.46-8.66-.81-17.29-2.42-25.76-.6-3.18-1.12-6.39-2.29-9.41-2.84-7.3-9.83-15.31-16.18-19.93-5.73-4.17-12.37-7.08-17.8-11.62-3.61-3.01-6.31-7.34-8.72-11.83Z"/>
    </clipPath>
    <clipPath id="clippath-4">
      <path class="cls-13" d="M209.38,164.48c2.12-.58,4.64-.26,6.86,1.02,6.01,3.48,9.98,12.07,12.01,18.36-2.04-3.01-5.86-4.78-9.55-4.4-2.99.3-6.08.86-8.87-.56-2.86-1.46-4.96-4.2-5.15-7.47-.23-3.81,1.89-6.17,4.7-6.95Z"/>
    </clipPath>
  </defs>
  <g id="Layer_1-2" data-name="Layer 1">
    <g>
      <g>
        <path class="cls-9" d="M77.86,183.1l9.28-22.39s20.79-41.66,41.58-63.89l12.84,6.32s-37.27,47.17-45.08,63.04l-11.14,22.64s-21.11,47.3-26.18,71.76l-3.95.37s11.28-54.74,22.65-77.85Z"/>
        <path class="cls-12" d="M292.07,268.75c2.51,1.24,3.55,4.28,2.31,6.79l-1.5,3.04c-1.24,2.52-4.28,3.55-6.79,2.31l-192.63-94.78s-.07.02-.1.04l6.13-12.16,192.57,94.76Z"/>
        <path class="cls-5" d="M99.45,173.97l.05.03-6.13,12.16c-1.32.62-2.9.67-4.32,0l-.22.44-.06.04,8.04-16.18c1.42.74,2.35,2.05,2.64,3.51Z"/>
        <polygon class="cls-11" points="96.38 166.25 97.67 168.63 96.78 170.44 96.81 170.46 88.77 186.64 85.24 188.89 96.38 166.25"/>
        <path class="cls-11" d="M87.04,160.79l-9.28,22.39-1.65-3.39-.12-.06s-.07-.05-.11-.07l8.55-17.61,2.61-1.27Z"/>
        <path class="cls-12" d="M64.99,166.45l1.5-3.04c1.24-2.51,4.27-3.55,6.79-2.31l5.91,2.91-6.1,12.09-5.79-2.85c-2.52-1.24-3.55-4.28-2.31-6.79Z"/>
        <path class="cls-5" d="M79.22,164.02c1.29-.64,2.84-.72,4.25-.12l.89-1.82.06-.03-8.55,17.61c-1.41-.74-2.34-2.04-2.63-3.49l-.15-.08,6.1-12.09.03.02Z"/>
      </g>
      <g>
        <rect class="cls-7" x="253.14" y="236.81" width="50.3" height="18.85" rx="6.27" ry="6.27" transform="translate(-44.42 62.02) rotate(-11.78)"/>
        <polygon class="cls-7" points="300.17 232.31 302.05 241.28 303.92 250.25 339.62 263.86 333.54 234.71 327.46 205.56 300.17 232.31"/>
        <rect class="cls-6" x="293.08" y="232.24" width="9.07" height="19.93" rx="1.76" ry="1.76" transform="translate(-43.19 65.88) rotate(-11.78)"/>
        <rect class="cls-6" x="332.99" y="204.19" width="3.87" height="60.46" rx="1.83" ry="1.83" transform="translate(-40.81 73.33) rotate(-11.78)"/>
      </g>
      <g>
        <g>
          <path class="cls-15" d="M237.14,394.87c3.35-.19-2.44-10.61-3.44-11.73-3.84-4.3-9.4-7.24-15.22-7.46-3.82-.15-7.75.99-11.52,1.5-6.02.82-16.2,1.33-10.77-7.5,5.77-9.37,14.39-16.92,19.43-26.65,9.51-18.35-3.36-39.69-25.83-32.48-1.61.52-3.18,1.26-4.87,1.42-1.69.16-3.61-.45-4.33-1.95-.47-.98-.34-2.13-.05-3.18.95-3.47,3.24-6.21,6.15-8.23,10.21-7.1,21.88-12.84,33.59-17.49,12.07-4.8,24.57-8.59,36.15-14.55,4.48-2.3,8.92-5.03,11.89-9.11,2.81-3.86,4.08-8.81,3.48-13.55-.16-1.23-.47-2.52-1.37-3.38-1.06-1.01-2.71-1.16-4.12-.79-1.42.36-2.67,1.16-3.95,1.87-7.85,4.37-17.37,5.66-26.1,3.54-1.45-.35-2.91-.81-4.08-1.74-4.5-3.6-5.55-9.63-6.46-15.01-1-5.87-4.57-11.89-8.49-16.42-3.2-3.7-7.6-6.17-10.66-10.01-4.43-5.58-2.8-11.28.36-17.65,5.4-10.89,23-26.63,15.49-38.21-5.78-8.92-10.35-13.95-21.8-14.82-9.77-.74-20.38,2.5-26.37,10.47-9.53,12.68-12.26,28.75-19.66,42.49-1.29,2.39-2.64,4.68-4.11,6.83-14.43,21.16-38.7,31.9-56.76,49.78-17.87,17.68-27.71,41.92-29.63,66.47-1.38,17.68,2.39,34.78,8.81,51.21,1.64,4.2,9.75,16.33,5.37,19.82-4.21,3.35-15.76-4.29-18.45-7.03-.59-.6-1.2-1.26-2.03-1.42-2.37-.46-3.21,2.99-2.83,5.31,1.52,9.33,5.06,15.76,13.35,21.1,7.19,4.63,16.03,6.09,24.49,6.51l144.32-7.95Z"/>
          <g class="cls-1">
            <path class="cls-12" d="M48.91,221.81c3.09-.97,6.3-1.54,9.55-1.57,7.9-.08,16.04,3.36,20.33,9.82-38.1,34.49-38.82,90.05-27.15,135.81,2.57,10.05-1.12,15.77-10.64,9.17-6.86-4.76-10.92-10.91-14.95-18.02-10.53-18.54-15.81-39.88-15.53-61.1.32-24.7,3.9-52.32,26-67.87,3.78-2.66,7.97-4.87,12.39-6.26Z"/>
            <path class="cls-13" d="M99.35,408.32c-1.55,1.15-3.1,2.18-4.21,3.03-2.52,1.95-5.3,3.99-8.51,4.06-1.89.04-3.72-.61-5.49-1.29-5.75-2.2-11.31-4.53-16.48-7.77-5.08-3.18-9.88-5.09-13.19-10.4-6.81-10.9-3.12-21.25,3.22-31.38.47-.75.99-1.53,1.79-1.95.79-.42,1.94-.34,2.42.4.3.46.29,1.05.28,1.59-.1,10.79,2.62,21.05,10.89,28.69,7.7,7.11,16.84,8.96,27.01,9.28,2.17.07,4.39.43,6.59.57.21.01.46.04.58.21.13.19.05.45-.05.66-.96,1.95-3.15,3.01-4.85,4.27Z"/>
          </g>
        </g>
        <g>
          <path class="cls-17" d="M204.79,113.52c-6.22-11.61-10.38-23.22-17.47-34.37-7.73-12.15-15.8-24.33-26.38-34.33-11.31-10.7-25.77-17.7-40.61-22.88-14.84-5.18-30.26-8.53-45.21-13.39-3.01.27-8.47-2.32-11.36-3.25-4.23-1.36-7.77-2.95-11.5-5.3,5.58,12.57,11.01,24.92,20.62,35.27,10.22,11.01,23.19,19.38,37.77,23.76,13.32,4.01,26.36,9.96,39.46,14.83,11.38,4.23,21.25,12.31,29.03,21.3,7.2,8.32,15.21,18.98,16.51,30.06.89,7.55-6.65,2.83-10.59.28-10.55-6.85-18.14-17.05-27.68-25.05-9.39-7.88-20.21-13.94-31.61-18.6-22.81-9.32-47.47-13.18-71.7-17.3-9.58-1.63-18.95-4.19-28.09-7.39-4.61-1.61-9.11-2.43-13.34-4.72-2.07-1.12-12.17-5.29-12.65-7.45,1.27,5.66,3.69,10.83,5.98,16.13,13.02,30.17,40.37,49.65,73.72,51.77,17.58,1.12,34.68-2.62,52.14-2.97,13-.26,28.93.76,37.33,11.91,11.22,14.9,7.95,34.47,13.03,51.38,3.87,12.89,13.09,24.65,25.91,30.01,13.49,5.64,40.87,8.02,44.1-11.16,1.46-8.66-.81-17.29-2.42-25.76-.6-3.18-1.12-6.39-2.29-9.41-2.84-7.3-9.83-15.31-16.18-19.93-5.73-4.17-12.37-7.08-17.8-11.62-3.61-3.01-6.31-7.34-8.72-11.83Z"/>
          <g class="cls-19">
            <path class="cls-12" d="M36.44-26c-.68.53-1.35,1.06-2.03,1.58C25.89-17.76,20.81-7.07,13.65,1.18,8.05,7.62,2.72,13.68.03,21.95c-2.14,6.57-2.53,12.51-1.16,18.18,1.04,4.3,3.09,8.46,6.16,12.64,5.57,7.59,10.35,15.31,17.9,21.25,17.33,13.64,38.6,22.47,60.72,25.19,14.09,1.73,28.45,2.65,42.59,3.82,8.78.72,20.13.79,28.11,4.54,10.98,5.16,19.13,13.71,22.13,25.49,1.5,5.88,1.55,12.1.21,18.03-1.16,5.11-1.07,10.16-2.55,15.24-.92,3.16-2.13,6.21-3.52,9.21-1.25,2.7-1.46,5.45-3.32,7.94-3.7,4.95-9.08,8.79-13.04,13.58-4.8,5.8-16.33,15.49-24.67,14.15-4.72-.76-7.51-6.8-11.25-9.34-14.95-10.17-32.41-17.47-47.81-27.15-14.76-9.27-29.44-19.71-38.44-34.43-10.14-16.57-12.03-36.86-21.08-54.03-6.35-12.03-16.04-22.19-21.9-34.47-3.34-6.99-2.36-13.83-1.4-21.19.5-3.83,1-7.68,2.19-11.37C-7.89,12.27-2.31,8.07.72,1.85c2.74-5.63,2.61-10.59,7.75-15.4,6.78-6.33,15.89-10.26,23.35-15.91,2.94-2.23,6.1-4.55,9.8-4.93.67-.07,1.44-.04,1.91.43,1,.99-.19,2.59-1.31,3.47-1.75,1.37-4.94,2.99-5.52,5.08-.56,1.99,1.4,6.53,1.84,8.59,1.2,5.59,2.4,11.18,4.02,16.66,4.97,16.81,14.33,32.86,28.85,43.08,6.43,4.53,13.68,7.8,20.93,10.93,18.96,8.18,37.36,17.47,56.2,25.76,9.91,4.37,16.9,13.16,22.63,21.88,5.83,8.87,10.08,20.65,20.97,24.64,4.74,1.74,3.42-4.22,3.11-6.73-.77-6.22-3.85-11.73-6.66-17.26-2.97-5.84-6.54-11.4-10.72-16.49-16.77-20.45-41.75-31.1-65.86-41.03-10.86-4.47-21.61-9.38-31.26-15.98-7.41-5.07-14.18-11.2-19.36-18.48-4.25-5.98-11.44-11.21-12.88-18.72-.74-3.86-.32-7.62-1.87-11.43-1.56-3.85-6.79-10.26-10.9-11.66-2.68-.91-6.36.6-6.46,3.37"/>
          </g>
        </g>
        <path class="cls-2" d="M211.09,163.81c5.46.45,9.5,5.15,9.01,10.49-.48,5.34-5.3,9.3-10.77,8.85-5.46-.45-9.5-5.15-9.01-10.49.48-5.34,5.3-9.3,10.77-8.85Z"/>
        <path class="cls-2" d="M211.09,163.81c5.46.45,9.5,5.15,9.01,10.49-.48,5.34-5.3,9.3-10.77,8.85-5.46-.45-9.5-5.15-9.01-10.49.48-5.34,5.3-9.3,10.77-8.85Z"/>
        <g>
          <path class="cls-16" d="M209.38,164.48c2.12-.58,4.64-.26,6.86,1.02,6.01,3.48,9.98,12.07,12.01,18.36-2.04-3.01-5.86-4.78-9.55-4.4-2.99.3-6.08.86-8.87-.56-2.86-1.46-4.96-4.2-5.15-7.47-.23-3.81,1.89-6.17,4.7-6.95Z"/>
          <g class="cls-18">
            <ellipse class="cls-4" cx="221.65" cy="174.11" rx="7.7" ry="7.52" transform="translate(-14.02 19.51) rotate(-4.89)"/>
            <path class="cls-12" d="M223.11,175.35c-.28,1.64-1.12,2.76-2.67,3.41-.85.36-1.73.67-2.61.95-.14.04-.28.09-.37.2-.07.09-.1.2-.13.31-.13.53-.3,1.25.09,1.72.29.35.69.25,1.1.19,1.41-.19,2.77,0,4.1.5,1.74.65,3.28,1.72,4.68,2.91.52.44,1.29.92,1.83.49.24-.19.33-.49.4-.78.75-2.97.52-6.16-.63-8.99-.76-1.86-1.91-3.56-3.36-4.97-.65-.64-1.26-1.38-2.09-1.81-.67-.35-1.52-.15-1.59.75-.01.19.04.38.12.55.14.34.36.64.53.97.6,1.14.82,2.4.61,3.6Z"/>
          </g>
        </g>
        <path class="cls-13" d="M176.83,139.97s5.31,5.73,6.58,14.35c1,6.82-1.69,16.46,3.47,28.36,4.63,10.69,14.96,16.71,25.29,22.02,0,0-3.6-1.54-9.92-3.59-6.32-2.06-20.01-9.3-24.84-23.26-4.83-13.95.75-26.84-.58-37.89Z"/>
        <path class="cls-12" d="M237.85,191.62s-.05-.04-.07-.05c2.01-.07,3.7.41,5.46,1.26,2.64,1.27,7.54,3.76,5.33,7.23-2.06-1.94-4.26-3.75-6.57-5.41-1.38-.99-2.8-1.98-4.16-3.03Z"/>
        <path class="cls-8" d="M197.52,103.9c-.9.3-1.8.63-2.68.99.89-.36,1.78-.69,2.68-.99Z"/>
      </g>
      <g>
        <g>
          <path class="cls-8" d="M178.61,108.36c-.78.54-1.54,1.12-2.29,1.72.74-.6,1.51-1.18,2.29-1.72Z"/>
          <path class="cls-8" d="M157,155.38l1.49-5.08c.03-.11.05-.22.05-.34-.07-6.16.86-12.18,2.78-17.91,2.76-8.26,7.48-15.47,13.64-20.85.44-.39.91-.75,1.38-1.13-.46.37-.93.73-1.37,1.13-6.16,5.38-10.87,12.59-13.64,20.85-1.92,5.73-2.86,11.75-2.78,17.91,0,.11-.01.23-.05.34l-1.49,5.08c-.48,1.64-.15,3.36.89,4.71,1.05,1.35,2.63,2.09,4.34,2.04h0c-1.71.06-3.29-.69-4.34-2.04-1.05-1.35-1.37-3.07-.9-4.71Z"/>
          <path class="cls-8" d="M203.05,158.25c-11,1.86-24.57,3.37-40.82,3.88h0c16.25-.51,29.81-2.02,40.82-3.88Z"/>
          <path class="cls-8" d="M178.61,108.36c.42-.3.84-.61,1.27-.89,4.59-2.97,9.64-4.94,15.01-5.87h0c-5.37.93-10.42,2.9-15.01,5.87-.43.28-.85.59-1.27.89Z"/>
          <path class="cls-8" d="M162.23,162.13c16.25-.51,29.81-2.02,40.82-3.88,10.85-1.83,21.73-.84,32.67-1.97,4.83-.5,9.68-1.55,14.11-3.58,1.61-.74,11.06-5.31,6.91-7.59-.52-.27-1.03-.55-1.53-.83-6.74-3.94-9.63-8.95-9.75-9.16-.04-.06-.06-.13-.09-.19-7.89-23.01-29.12-37.02-50.49-33.32-5.37.93-10.42,2.9-15.01,5.87-.43.28-.85.59-1.27.89-.78.54-1.54,1.12-2.29,1.72-.46.37-.93.73-1.37,1.13-6.16,5.38-10.87,12.59-13.64,20.85-1.92,5.73-2.86,11.75-2.78,17.91,0,.11-.01.23-.05.34l-1.49,5.08c-.48,1.64-.15,3.36.89,4.71,1.05,1.35,2.63,2.09,4.34,2.04Z"/>
        </g>
        <path class="cls-10" d="M171.52,122.09h0c13.16-9.58,25.02-10.57,34.66-8.11,7.5,1.91,13.66,5.91,18.05,9.57h0s0,0,0,0c-8.35-4.42-16.65-6.27-24.32-6.6-11.45-.49-21.54,2.39-28.39,5.14,0,0,0,0,0,0Z"/>
      </g>
    </g>
  </g>
</svg>