<?xml version="1.0" encoding="UTF-8"?>
<svg id="Layer_2" data-name="Layer 2" xmlns="http://www.w3.org/2000/svg" xmlns:xlink="http://www.w3.org/1999/xlink" viewBox="0 0 233.31 370.05">
  <defs>
    <style>
      .cls-1 {
        clip-path: url(#clippath);
      }

      .cls-2 {
        fill: none;
      }

      .cls-2, .cls-3, .cls-4, .cls-5, .cls-6, .cls-7, .cls-8, .cls-9 {
        stroke-width: 0px;
      }

      .cls-3, .cls-10 {
        fill: #b9874b;
      }

      .cls-4, .cls-11 {
        fill: #1c1a37;
      }

      .cls-12, .cls-8 {
        fill: #fff;
      }

      .cls-5 {
        fill: #1d1d1b;
      }

      .cls-13, .cls-9 {
        fill: url(#Dégradé_sans_nom_14);
      }

      .cls-14 {
        clip-path: url(#clippath-4);
      }

      .cls-15 {
        clip-path: url(#clippath-2);
      }

      .cls-11 {
        stroke: #1d1d1b;
        stroke-linecap: round;
        stroke-miterlimit: 10;
        stroke-width: 2.95px;
      }

      .cls-6 {
        fill: #ededed;
      }

      .cls-7 {
        fill: #725741;
      }
    </style>
    <clipPath id="clippath">
      <path class="cls-3" d="M186.64,369.73c2.97-.2-3.55-7.59-4.13-8.11-3.43-3.04-7.08-5.15-11.71-5.97-5.35-.94-28.42,4.66-19.83-6.94,5.77-7.79,13.9-13.78,19.06-21.94,9.73-15.4.03-35.11-20.24-30.46-1.45.33-2.88.87-4.38.88-1.49.01-3.13-.67-3.65-2.03-.34-.9-.14-1.9.19-2.8,3.44-9.37,16.11-9.46,24.08-13.16,10.92-5.07,20.56-13.4,28.43-22.18,8.06-8.99,10.46-21.45,20.13-29.39,3.95-3.24,20.23-5.04,18.6-10.53-6.94-13.83-26.39-1.73-35.72,4.81-7.66,5.37-11.6,1.02-14.11-6.22-1.96-5.66-7.48-8.62-10.69-13.45-3.47-5.23-1.61-10.11,1.64-15.47,4.29-7.06,11.04-12.32,15.09-19.56,4.43-7.93,1.58-17.3-3.8-24.26-5.88-7.61-14.95-9.48-23.86-6.63-10.53,3.36-16.81,10.36-21.16,20.35-3.85,8.83-6.82,17.86-12.21,26.1-1.31,2-2.67,3.91-4.12,5.69-14.26,17.5-36.37,25.11-53.58,39.45-17.02,14.19-27.48,34.73-31.01,56.14-2.54,15.42-.51,30.72,3.9,45.62,1.13,3.81,7.34,15.07,3.22,17.81-3.95,2.63-13.52-4.95-15.67-7.55-.47-.57-.96-1.19-1.67-1.4-2.04-.58-3.04,2.38-2.88,4.45.64,8.3,3.26,14.22,10.14,19.52,5.97,4.6,13.62,6.55,21.01,7.55l128.94-.32Z"/>
    </clipPath>
    <linearGradient id="Dégradé_sans_nom_14" data-name="Dégradé sans nom 14" x1="-11972.7" y1="-1776.15" x2="-11795.98" y2="-1776.15" gradientTransform="translate(12082.87 -871.21) rotate(-13.14)" gradientUnits="userSpaceOnUse">
      <stop offset=".39" stop-color="#b17f4a"/>
      <stop offset="1" stop-color="#bc894d"/>
    </linearGradient>
    <clipPath id="clippath-2">
      <path class="cls-9" d="M174.32,110.9c-4.58-10.64-7.36-21.12-12.74-31.42-5.87-11.23-12.02-22.5-20.54-32.06-9.11-10.22-21.26-17.44-33.87-23.09-12.62-5.65-25.88-9.74-38.61-15.12-2.66.01-7.25-2.67-9.71-3.7-3.6-1.51-6.59-3.16-9.68-5.51,3.95,11.43,7.78,22.66,15.43,32.45,8.13,10.41,18.87,18.72,31.32,23.65,11.38,4.51,22.35,10.7,33.47,15.95,9.65,4.56,17.7,12.37,23.85,20.84,5.69,7.83,11.9,17.77,12.21,27.58.21,6.68-6.04,1.98-9.3-.55-8.73-6.79-14.62-16.3-22.38-24.02-7.64-7.6-16.67-13.73-26.31-18.66-19.29-9.88-40.61-15.11-61.53-20.53-8.27-2.14-16.29-5.09-24.06-8.58-3.92-1.76-7.8-2.81-11.33-5.13-1.73-1.13-10.27-5.55-10.53-7.48.68,5.06,2.42,9.77,4.03,14.58,9.15,27.41,31.65,46.53,60.72,50.89,15.32,2.3,30.58.3,45.91,1.3,11.41.75,25.29,2.83,31.82,13.23,8.71,13.9,4.39,30.8,7.57,46,2.43,11.59,9.62,22.58,20.46,28.24,11.4,5.95,35.21,10.09,39.48-6.48,1.93-7.48.58-15.21-.19-22.75-.29-2.83-.5-5.68-1.31-8.42-1.95-6.61-7.46-14.15-12.68-18.68-4.71-4.08-10.31-7.13-14.73-11.51-2.94-2.91-4.98-6.91-6.75-11.02Z"/>
    </clipPath>
    <clipPath id="clippath-4">
      <path class="cls-8" d="M174.52,155.89c1.9-.35,4.09.12,5.94,1.41,5.01,3.5,7.84,11.32,9.15,16.98-1.56-2.79-4.78-4.62-8.04-4.57-2.64.04-5.4.3-7.73-1.16-2.4-1.49-4.03-4.05-3.95-6.93.09-3.35,2.11-5.27,4.64-5.73Z"/>
    </clipPath>
  </defs>
  <g id="Layer_1-2" data-name="Layer 1">
    <g>
      <g>
        <g>
          <path class="cls-10" d="M186.64,369.73c2.97-.2-3.55-7.59-4.13-8.11-3.43-3.04-7.08-5.15-11.71-5.97-5.35-.94-28.42,4.66-19.83-6.94,5.77-7.79,13.9-13.78,19.06-21.94,9.73-15.4.03-35.11-20.24-30.46-1.45.33-2.88.87-4.38.88-1.49.01-3.13-.67-3.65-2.03-.34-.9-.14-1.9.19-2.8,3.44-9.37,16.11-9.46,24.08-13.16,10.92-5.07,20.56-13.4,28.43-22.18,8.06-8.99,10.46-21.45,20.13-29.39,3.95-3.24,20.23-5.04,18.6-10.53-6.94-13.83-26.39-1.73-35.72,4.81-7.66,5.37-11.6,1.02-14.11-6.22-1.96-5.66-7.48-8.62-10.69-13.45-3.47-5.23-1.61-10.11,1.64-15.47,4.29-7.06,11.04-12.32,15.09-19.56,4.43-7.93,1.58-17.3-3.8-24.26-5.88-7.61-14.95-9.48-23.86-6.63-10.53,3.36-16.81,10.36-21.16,20.35-3.85,8.83-6.82,17.86-12.21,26.1-1.31,2-2.67,3.91-4.12,5.69-14.26,17.5-36.37,25.11-53.58,39.45-17.02,14.19-27.48,34.73-31.01,56.14-2.54,15.42-.51,30.72,3.9,45.62,1.13,3.81,7.34,15.07,3.22,17.81-3.95,2.63-13.52-4.95-15.67-7.55-.47-.57-.96-1.19-1.67-1.4-2.04-.58-3.04,2.38-2.88,4.45.64,8.3,3.26,14.22,10.14,19.52,5.97,4.6,13.62,6.55,21.01,7.55l128.94-.32Z"/>
          <g class="cls-1">
            <path class="cls-7" d="M32.74,207.82c2.79-.62,5.64-.88,8.5-.66,6.94.52,13.83,4.15,17.11,10.15-36.04,27.43-40.85,76.16-34.03,117.21,1.5,9.02-2.17,13.77-10.03,7.25-5.67-4.7-8.77-10.4-11.78-16.94-7.85-17.07-10.89-36.2-9.05-54.81,2.14-21.66,7.35-45.65,27.92-57.64,3.52-2.05,7.37-3.68,11.35-4.56Z"/>
            <path class="cls-8" d="M63.03,375.38c-1.45.89-2.89,1.68-3.93,2.35-2.36,1.52-4.95,3.1-7.77,2.93-1.67-.1-3.22-.82-4.72-1.54-4.89-2.36-9.59-4.83-13.89-8.06-4.22-3.17-8.29-5.21-10.8-10.12-5.16-10.09-1.14-18.89,5.18-27.31.47-.63.99-1.27,1.72-1.58.73-.31,1.73-.15,2.1.53.23.43.17.94.13,1.42-.9,9.47.72,18.68,7.41,26.01,6.22,6.82,14.12,9.13,23.02,10.17,1.9.22,3.83.71,5.75,1,.19.03.4.07.49.23.1.18,0,.4-.1.57-.99,1.64-2.99,2.41-4.58,3.39Z"/>
            <path class="cls-7" d="M232.5,221.52c-.41-.99-1.77-1.08-2.84-.98-9.69.98-16.91,4.97-23.07,10.61-4.31,3.95-8.11,8.71-11.88,13.81-6.76,9.17-10.45,20.14-18.33,28.52-6.97,3.11-14.85,4.08-22.48,5.41-.58.1-1.17.21-1.75.31-7.65,1.41-15.53,3.67-21.98,8.15-5.19,3.61-14.51,14.32-10.62,21.19,1.31,2.32,4.18,3.65,6.81,3.15,3-.57,5.14-3.12,7.27-5.31,9.78-10.06,23.39-12.04,34.98-19.02,5.96-2.03,11.47-5.64,16.11-9.95,7.33-6.82,12.83-15.34,18.4-23.66,3.57-5.34,7.22-10.67,11.47-15.5,3.28-3.74,6.59-6.99,11.09-9.1,2.22-1.04,8.26-4.24,6.83-7.66Z"/>
          </g>
        </g>
        <g>
          <g>
            <g>
              <path class="cls-13" d="M174.32,110.9c-4.58-10.64-7.36-21.12-12.74-31.42-5.87-11.23-12.02-22.5-20.54-32.06-9.11-10.22-21.26-17.44-33.87-23.09-12.62-5.65-25.88-9.74-38.61-15.12-2.66.01-7.25-2.67-9.71-3.7-3.6-1.51-6.59-3.16-9.68-5.51,3.95,11.43,7.78,22.66,15.43,32.45,8.13,10.41,18.87,18.72,31.32,23.65,11.38,4.51,22.35,10.7,33.47,15.95,9.65,4.56,17.7,12.37,23.85,20.84,5.69,7.83,11.9,17.77,12.21,27.58.21,6.68-6.04,1.98-9.3-.55-8.73-6.79-14.62-16.3-22.38-24.02-7.64-7.6-16.67-13.73-26.31-18.66-19.29-9.88-40.61-15.11-61.53-20.53-8.27-2.14-16.29-5.09-24.06-8.58-3.92-1.76-7.8-2.81-11.33-5.13-1.73-1.13-10.27-5.55-10.53-7.48.68,5.06,2.42,9.77,4.03,14.58,9.15,27.41,31.65,46.53,60.72,50.89,15.32,2.3,30.58.3,45.91,1.3,11.41.75,25.29,2.83,31.82,13.23,8.71,13.9,4.39,30.8,7.57,46,2.43,11.59,9.62,22.58,20.46,28.24,11.4,5.95,35.21,10.09,39.48-6.48,1.93-7.48.58-15.21-.19-22.75-.29-2.83-.5-5.68-1.31-8.42-1.95-6.61-7.46-14.15-12.68-18.68-4.71-4.08-10.31-7.13-14.73-11.51-2.94-2.91-4.98-6.91-6.75-11.02Z"/>
              <g class="cls-15">
                <path class="cls-7" d="M37.25-23.97c-.63.41-1.26.82-1.9,1.24-7.97,5.19-13.22,14.18-20.11,20.87C9.85,3.37,4.73,8.28,1.75,15.32-.62,20.92-1.4,26.09-.63,31.17c.59,3.85,2.08,7.65,4.45,11.54,4.31,7.07,7.93,14.19,14.09,19.96,14.17,13.25,32.14,22.58,51.32,26.62,12.21,2.58,24.73,4.45,37.04,6.53,7.64,1.29,17.58,2.2,24.29,6.09,9.23,5.35,15.73,13.44,17.48,23.99.87,5.26.45,10.72-1.17,15.81-1.4,4.39-1.7,8.82-3.38,13.16-1.05,2.7-2.34,5.28-3.78,7.81-1.3,2.27-1.69,4.67-3.5,6.71-3.61,4.06-8.61,7.02-12.45,10.92-4.64,4.73-15.47,12.35-22.68,10.55-4.08-1.02-6.07-6.52-9.16-9.03-12.34-10.04-27.09-17.74-39.86-27.37-12.24-9.23-24.32-19.48-31.11-33.05-7.64-15.28-7.78-33.2-14.43-48.92-4.66-11.02-12.4-20.65-16.61-31.84-2.4-6.37-1.03-12.3.36-18.67.72-3.32,1.45-6.66,2.77-9.8C-4.46,6.25.74,2.99,3.86-2.24c2.82-4.73,3.08-9.09,7.95-12.91,6.42-5.04,14.69-7.8,21.65-12.2,2.75-1.74,5.68-3.53,8.95-3.59.6-.01,1.26.07,1.64.52.8.95-.36,2.26-1.41,2.94-1.64,1.07-4.55,2.25-5.22,4.04-.64,1.7.74,5.83.97,7.67.63,4.98,1.26,9.97,2.27,14.9,3.1,15.1,10.1,29.87,22.05,39.91,5.29,4.45,11.4,7.86,17.52,11.14,16,8.58,31.43,18.1,47.31,26.78,8.36,4.57,13.82,12.8,18.19,20.87,4.44,8.21,7.29,18.85,16.53,23.16,4.02,1.88,3.31-3.44,3.23-5.67-.21-5.51-2.5-10.57-4.54-15.62-2.17-5.34-4.88-10.48-8.16-15.26-13.16-19.18-34.26-30.38-54.64-40.89-9.18-4.73-18.24-9.83-26.19-16.35-6.11-5-11.58-10.88-15.58-17.65-3.28-5.56-9.18-10.68-9.88-17.37-.36-3.44.29-6.7-.78-10.16-1.08-3.49-5.19-9.5-8.68-11.03-2.28-1-5.62.05-5.92,2.47"/>
              </g>
            </g>
            <path class="cls-2" d="M176.07,155.44c4.75.81,7.94,5.22,7.11,9.86-.82,4.64-5.34,7.75-10.1,6.95-4.75-.81-7.94-5.22-7.11-9.86.82-4.64,5.34-7.75,10.1-6.95Z"/>
            <path class="cls-2" d="M176.07,155.44c4.75.81,7.94,5.22,7.11,9.86-.82,4.64-5.34,7.75-10.1,6.95-4.75-.81-7.94-5.22-7.11-9.86.82-4.64,5.34-7.75,10.1-6.95Z"/>
            <g>
              <path class="cls-12" d="M174.52,155.89c1.9-.35,4.09.12,5.94,1.41,5.01,3.5,7.84,11.32,9.15,16.98-1.56-2.79-4.78-4.62-8.04-4.57-2.64.04-5.4.3-7.73-1.16-2.4-1.49-4.03-4.05-3.95-6.93.09-3.35,2.11-5.27,4.64-5.73Z"/>
              <g class="cls-14">
                <ellipse class="cls-4" cx="172.05" cy="161.06" rx="6.77" ry="6.61"/>
                <path class="cls-7" d="M185.74,166.45c-.37,1.42-1.19,2.33-2.59,2.78-.78.25-1.56.46-2.36.64-.12.03-.25.06-.34.14-.07.07-.1.17-.14.26-.15.45-.36,1.08-.05,1.51.23.33.59.27.95.25,1.25-.06,2.43.21,3.55.74,1.47.7,2.74,1.75,3.88,2.9.42.43,1.06.9,1.57.57.22-.15.33-.41.41-.65.88-2.54.92-5.36.12-7.92-.52-1.69-1.41-3.26-2.57-4.61-.52-.61-1-1.3-1.7-1.74-.56-.36-1.32-.24-1.45.54-.03.16,0,.33.06.49.1.31.26.59.39.89.44,1.04.53,2.16.26,3.2Z"/>
              </g>
            </g>
            <path class="cls-8" d="M147.84,131.98s4.22,5.42,4.69,13.07c.37,6.05-2.72,14.29.92,25.11,3.26,9.71,11.86,15.77,20.51,21.19,0,0-3.04-1.62-8.42-3.89-5.39-2.28-16.83-9.65-20.02-22.24-3.19-12.59,2.67-23.46,2.33-33.24Z"/>
          </g>
          <path class="cls-7" d="M197.44,181.81s-.04-.03-.06-.05c1.77.09,3.21.64,4.69,1.52,2.22,1.31,6.33,3.86,4.13,6.73-1.66-1.86-3.45-3.61-5.35-5.23-1.14-.98-2.31-1.95-3.42-2.96Z"/>
        </g>
      </g>
      <g>
        <line class="cls-11" x1="215.82" y1="125.78" x2="230.9" y2="225.81"/>
        <g>
          <path class="cls-6" d="M225.14,144.46c-.08-1.15-1.96-11.52-2.02-14.98-.05-3.46-.52-4.75-.93-5.85-.41-1.1-2.03-1-2.03-1-4.43,1.63-30.51,2.83-30.75,2.84-.24-.01-26.32-1.21-30.75-2.84,0,0-1.62-.1-2.03,1-.41,1.1-.88,2.39-.93,5.85-.05,3.46-1.94,13.82-2.02,14.98-.08,1.15-.4,8.69.86,13.96,1.26,5.27,5.88,20.81,7.96,23.61,2.09,2.8,14.77,17.16,16.67,18.48,1.89,1.32,6.07,3.78,10.23,4.04h0s0,0,0,0c0,0,0,0,0,0h0c4.16-.25,8.34-2.72,10.23-4.04,1.89-1.32,14.58-15.68,16.67-18.48,2.09-2.8,6.7-18.34,7.96-23.61,1.26-5.27.95-12.81.86-13.96ZM173.65,154.85c-4.6-.22-8.28-1.63-8.2-3.15.07-1.52,3.86-2.57,8.47-2.35,4.6.22,8.28,1.63,8.2,3.15-.07,1.52-3.86,2.57-8.47,2.35ZM205.87,154.85c-4.6.22-8.39-.83-8.47-2.35-.07-1.52,3.6-2.93,8.2-3.15,4.6-.22,8.39.83,8.47,2.35.07,1.52-3.6,2.93-8.2,3.15Z"/>
          <g>
            <path class="cls-5" d="M167.44,176.38c1.24,1.79,2.57,3.54,4.09,5.08,1.47,1.6,3.52,2.39,5.51,3.25,4.03,1.85,8.28,2.12,12.63,2.43,0,0-.14,1.46-.14,1.46-2.18-.32-4.32-.59-6.53-.95-3.29-.78-6.28-2.15-9.17-3.81-2.87-1.7-4.62-4.75-6.38-7.46h0Z"/>
            <path class="cls-5" d="M169.83,179.48c5.92,3.64,12.87,5.01,19.77,4.59,0,0,.02.98.02.98-7,.09-13.97-1.61-19.79-5.57h0Z"/>
          </g>
          <g>
            <path class="cls-5" d="M211.5,176.38c-1.74,2.7-3.47,5.73-6.31,7.45-2.87,1.67-5.84,3.03-9.1,3.82-2.2.37-4.32.63-6.49.95l-.14-1.46c4.33-.31,8.54-.58,12.54-2.44,1.97-.86,4-1.66,5.46-3.26,1.51-1.54,2.82-3.28,4.05-5.06h0Z"/>
            <path class="cls-5" d="M209.14,179.48c-5.76,3.95-12.67,5.66-19.62,5.57,0,0,.02-.98.02-.98,6.84.42,13.73-.96,19.6-4.59h0Z"/>
          </g>
          <g>
            <path class="cls-5" d="M186.66,146.62c-4.31-3.26-8.23-5.43-11.14-6.85-8.42-4.09-11.32-3.28-12.64-2.7-1.23.54-2.1,1.33-2.64,1.92,0,0,3.95-1.26,9.83,1.04,5.88,2.31,15.1,8.57,15.1,8.57l1.48-1.98Z"/>
            <path class="cls-5" d="M166.77,170.12c.88,2.25,2.08,3.75,2.88,4.61.6.64,1.32,1.4,2.48,2.08,1.28.75,2.51,1,4.91,1.47.92.18,2.18.4,3.69.57.88-.51,1.93-1.22,2.98-2.22.54-.52,1-1.04,1.39-1.53l4.32,1.15-4.77,5.85s-2.35.45-7.37-.82c-5.02-1.28-5.44-1.61-6.63-2.31-1.19-.7-5.15-6.1-5.6-8.15-.45-2.06-.37-1.44-.37-1.44l2.1.74Z"/>
          </g>
          <g>
            <path class="cls-5" d="M192.07,146.62c4.31-3.26,8.23-5.43,11.14-6.85,8.42-4.09,11.32-3.28,12.64-2.7,1.23.54,2.1,1.33,2.64,1.92,0,0-3.95-1.26-9.83,1.04-5.88,2.31-15.1,8.57-15.1,8.57l-1.48-1.98Z"/>
            <path class="cls-5" d="M211.96,170.12c-.88,2.25-2.08,3.75-2.88,4.61-.6.64-1.32,1.4-2.48,2.08-1.28.75-2.51,1-4.91,1.47-.92.18-2.18.4-3.69.57-.88-.51-1.93-1.22-2.98-2.22-.54-.52-1-1.04-1.39-1.53l-4.32,1.15,4.77,5.85s2.35.45,7.37-.82c5.02-1.28,5.44-1.61,6.63-2.31,1.19-.7,5.15-6.1,5.6-8.15.45-2.06.37-1.44.37-1.44l-2.1.74Z"/>
          </g>
          <path class="cls-5" d="M185.14,187.87s2.43.37,4.08.41c1.65.04,4.28-.41,4.28-.41-.59,2.32-.8,4.22-.89,5.5-.16,2.45.08,3.49-.27,6.32-.45,3.62-1.17,4.55-1.93,4.82-.35.12-.68.1-.92.05-.27.04-.65.06-1.02-.11-1.05-.46-1.34-2.01-1.6-4.89-.32-3.43-.19-4.35-.41-6.22-.16-1.32-.49-3.22-1.32-5.48Z"/>
          <g>
            <path class="cls-5" d="M156.07,154.09c.26,2.71.75,5.28,2.1,7.67.58,1.23.97,2.57,1.72,3.64,1.82,1.73,4.51,3.11,6.96,3.68,1.02.03,2.81-.48,3.86-.69,2.64-.59,5.3-1.15,7.98-1.64l-.15.11c.44-.6.91-1.16,1.5-1.61l.07.07c-.48.57-.84,1.22-1.18,1.87l-.11.04c-3.95,1.21-7.91,2.6-12.08,2.68-2.13-.52-3.71-1.93-5.47-3.02-1.88-.96-2.93-2.99-3.86-4.76-1.45-2.37-1.83-5.33-1.43-8.05,0,0,.1,0,.1,0h0Z"/>
            <path class="cls-5" d="M178.68,167.38c-.29,1.39.2,2.34.97,3.41.16.25.35.47.58.58.94.24,2.06.09,3.04-.04.98.85,1.92,1.8,2.89,2.63.96.8,2.07,1.08,3.26,1.42v.1c-.64.16-1.32.16-1.98.06-1.42-.13-2.48-1.13-3.33-2.16-.42-.49-.82-1-1.16-1.55l.23.11c-1.07-.18-1.99-.16-3.08-.08-1.85-.44-2.79-3.11-1.51-4.52l.09.04h0Z"/>
          </g>
          <g>
            <path class="cls-5" d="M222.85,154.08c.4,2.72.01,5.68-1.43,8.05-.93,1.77-1.98,3.79-3.86,4.75-1.76,1.09-3.34,2.5-5.47,3.02-4.17-.08-8.13-1.47-12.08-2.68,0,0-.11-.04-.11-.04-.34-.64-.7-1.3-1.18-1.87l.07-.07c.59.45,1.06,1.01,1.5,1.61l-.15-.11c2.68.49,5.34,1.05,7.98,1.64,1.06.21,2.84.72,3.86.69,2.45-.57,5.13-1.95,6.96-3.68,1.03-1.62,1.66-3.73,2.59-5.44.93-2.05.95-4.96,1.33-5.87h0Z"/>
            <path class="cls-5" d="M200.23,167.34c1.28,1.41.35,4.09-1.51,4.52-1.08-.08-2.01-.1-3.08.08,0,0,.23-.11.23-.11-.72,1.1-1.53,2.1-2.56,2.94-1.04.81-2.64,1-3.91.71v-.1c.94-.22,1.77-.54,2.62-.95,1.27-.85,2.35-2.1,3.54-3.1.69.09,1.39.19,2.09.15.31-.01.71-.03.94-.12.68-.45,1.11-1.46,1.49-2.15.18-.49.14-1.18.05-1.84l.09-.04h0Z"/>
          </g>
          <g>
            <path class="cls-5" d="M181.73,151.68c-3.09-1.27-6.19-2.2-9.47-2.55-2.89-.25-5.32,1.27-8,2.06-1.85.35-3.64-.82-4.79-2.08-.79-.82-1.45-1.8-1.84-2.85l.09-.05c1.88,2.33,4.7,5.04,7.88,3.55,2.1-.86,4.44-.93,6.67-.95,3.38-.23,6.93.52,9.52,2.79,0,0-.05.08-.05.08h0Z"/>
            <path class="cls-5" d="M180.57,154.04c-3.92,1.91-8.36,1.34-12.49.55-3.85-.67-7.79-4.27-11.64-1.85,0,0-.06-.07-.06-.07.7-.8,1.71-1.39,2.84-1.55,3.34-.28,6.07,1.78,9.01,2.96,3.65,1.59,8.59-.15,12.34-.04h0Z"/>
          </g>
          <g>
            <path class="cls-5" d="M197.37,151.6c2.59-2.27,6.14-3.02,9.52-2.79,2.23.03,4.57.09,6.67.95,3.18,1.48,6-1.22,7.88-3.55,0,0,.09.05.09.05-.39,1.05-1.05,2.03-1.84,2.85-1.14,1.26-2.94,2.43-4.79,2.08-2.67-.79-5.11-2.31-8-2.06-3.28.36-6.38,1.28-9.47,2.55,0,0-.05-.08-.05-.08h0Z"/>
            <path class="cls-5" d="M198.61,153.95c2.09.26,4.14.4,6.2.61,2.04.33,4.18.33,6.11-.48,2.94-1.17,5.67-3.24,9.01-2.96,1.13.16,2.14.75,2.84,1.55l-.06.07c-3.85-2.42-7.79,1.18-11.64,1.85-4.02.73-8.89,1.48-12.46-.64h0Z"/>
          </g>
        </g>
      </g>
    </g>
  </g>
</svg>