<?xml version="1.0" encoding="UTF-8"?>
<svg id="Layer_2" data-name="Layer 2" xmlns="http://www.w3.org/2000/svg" xmlns:xlink="http://www.w3.org/1999/xlink" viewBox="0 0 208.12 332.27">
  <defs>
    <style>
      .cls-1 {
        clip-path: url(#clippath);
      }

      .cls-2 {
        fill: #3f235b;
      }

      .cls-2, .cls-3, .cls-4, .cls-5, .cls-6, .cls-7, .cls-8 {
        stroke-width: 0px;
      }

      .cls-9, .cls-3 {
        fill: #51306d;
      }

      .cls-4 {
        fill: #b68754;
      }

      .cls-5 {
        fill: #6a5544;
      }

      .cls-6 {
        fill: #fff;
      }

      .cls-7 {
        fill: #4a2864;
      }

      .cls-8 {
        fill: #1a1933;
      }
    </style>
    <clipPath id="clippath">
      <path class="cls-3" d="M176.15,98.66c3.43-.56,6.22-1.53,8.28-2.42,3.36-1.46,6.54-2.84,9.03-6.13,2.03-2.67,2.78-5.53,3.09-7.54.82.83,2.82,3.06,2.65,5.9-.15,2.49-1.89,4.2-3.45,5.63-2.75,2.51-7.34,6.33-14.22,10.62-1.79-2.02-3.58-4.04-5.37-6.06Z"/>
    </clipPath>
  </defs>
  <g id="Layer_1-2" data-name="Layer 1">
    <g>
      <g>
        <path class="cls-5" d="M150.65,123.11c-5.02-1.56-11.69-3.63-21.51-4.86-7.81-.98-14.15,1.43-19.44,3.43-3.83,1.45-10.31,4.41-16.7,10.12-7.94,7.09-7.45,11.03-15.69,21.41-2.13,2.69-8.41,10.3-18.25,17.54-6.05,4.45-15.51,11.26-28.61,12.88-4.67.58-14.7-1.18-15.3-3.34-.31-1.12,3.32-.48,4.17-1.11,9.69-7.18,27.38-14.32,35.26-19.38,15.01-9.64,7.73-20.26,25.98-34.01,1.72-1.29,10.34-7.65,23.47-11.16,10.77-2.88,18.68-2.26,28.5-1.49,8.82.69,13,2.1,14.57,5.28.64,1.29,4.96,5.12,3.55,4.68Z"/>
        <path class="cls-4" d="M163.47,133.6c4.48-5.17-24.6-15.52-29.66-16.32-3.98-.63-22.43-3.58-44.49,9.53-5.41,3.21-8.47,7.17-10.21,9.5-5.11,6.87-3.9,9.84-8.47,16.43-3.22,4.64-6.59,7.15-11.8,11.04-2.42,1.81-7.9,5.52-19.75,11.74-4.66,2.45-8.22,3.46-12.82,4.52-3.67.85-10.51,1.86-11.12.25-.72-1.92,8.34-5.08,17.48-12.96,8.6-7.42,7.92-10.97,20.44-27.93,8.76-11.88,13.15-17.82,19.86-22.62,11.46-8.19,23.07-10.12,28.87-11.01,7.81-1.21,26.53-3.78,41.21,4.34,5.6,3.09,5.86,2.54,21.34,13.3,2.81,1.95,4.84,4.28,7.44,5.67"/>
      </g>
      <g>
        <path class="cls-5" d="M127.21,108.33c-4.04-1.71-6.16-2.63-11.39-3.45-8.56-1.34-15.17.24-17.43.89-5.89,1.71-10.27,6.16-19.02,15.08-5.05,5.15-9.28,10.12-13.14,14.67-7.82,9.21-7.73,9.93-10.7,12.21-7.78,6.01-16.28,7.13-19.81,7.56,0,0-11.52,1.39-21.82-3.17-2.21-.98-4.48-2.81-5.2-3.38-1.37-1.1-1.45-1.37-1.43-1.56.22-1.46,7.58-1.09,12.35-1.58,11.67-1.19,19.96-8.79,24.9-13.32,9.96-9.13,6.58-12.83,16.53-23,4.25-4.34,12.11-12.18,24.64-14.99,7.88-1.77,14.33-.41,27.23,2.3,9.6,2.02,13.26,4.09,14.27,7.2.5,1.52,1.42,5.14.02,4.55Z"/>
        <path class="cls-4" d="M129.3,117.24c3.16-.77,2.06-6.68-4.71-10.82-5.44-3.33-11.24-5.64-14.07-6.18-7.1-1.34-12.72-2.21-13.94-2.19-4.05.06-5.33,0-9.03.72-5.85,1.14-6.65,2.24-10.28,4.13-7.49,3.89-10.58,6.69-17.66,16.96-8.18,11.85-6.14,13.46-12.08,19.61-5.75,5.95-12.07,7.27-20.11,8.68-8.67,1.52-20.47.83-20.86-1.1-.33-1.64,8.67-1.04,19.01-7.53,8.28-5.2,10.32-9.22,17.89-19.69,5.25-7.26,8.76-10.28,11.96-13.59,7.8-8.07,11.43-9.31,17.1-11.91,2.98-1.37,7.96-3.33,13.96-4.61,7.77-1.65,16.28-.44,23.44,1.62,19.68,5.67,26.32,25.44,30.4,24.26"/>
      </g>
      <g>
        <path class="cls-5" d="M191.25,181.41c-3.47,4.37-5.22,9.89-6.9,12.91-4.22,7.56-4.22,8.09-9.22,15.15-4.02,5.68-8.05,10.91-12.51,14.06-3.28,2.32,2.91-24.7,16.02-36.83,3.34-3.09,5.68-8.7,7.49-7.25.18.15,7.45-.97,5.13,1.95Z"/>
        <path class="cls-5" d="M137.33,237.09c-4.47,2.72-8,2.94-14.9,7.25-2.02,1.26-4.47,3.19-5.56,6.15-.32.88-.89,2.49-.22,4.17.54,1.34,1.6,2.07,1.9,2.27,1.09.72,1.65,1.16,3.28,1.32,2.36.24,3.23.16,3.85.33,2.83.74-6.87,16.23-19.5,17.31-1.8.15-9.75.83-14.42-4.61-4.93-5.75-2.68-14.21-2.27-15.74,4.33-16.25,26.28-21.58,32.06-22.98,1.99-.48,12.61.46,16.76.22,2.56-.15-.6,4.08-.98,4.31Z"/>
        <path class="cls-5" d="M24.17,304.33c-3.25-8.83-10.74-23.68-11.62-34-1.49-17.49-3.7-40.92,11.59-64.14,7.17-10.89,18.25-19.29,40.4-36.11,6.25-4.74,16.3-9.23,26.16-18.35,10.1-9.35,15.22-15.22,15.22-15.22,3.83-4.39,5.59-6.9,6.05-6.64,1.35.78-10.72,23.47-16.98,36.31-29.15,59.81-31.49,109.72-59.92,132.73-4.53,3.67-8.69,11.47-10.91,5.43Z"/>
        <path class="cls-4" d="M137.36,82.43c-11,14.88-12.6,15.8-16.01,21.08-4.07,6.31-2.91,6.75-10.54,25.37-5.81,14.19-8.72,21.29-11.71,25.77-6.28,9.4-10.68,10.28-27.33,23.81-15.92,12.94-23.89,19.41-30.84,29.28-11.03,15.65-14.59,31.32-16.01,37.87-2.72,12.54-2.75,23.38-2.73,29.28.06,22.1,4.71,34.26-.39,37.09-3.43,1.9-10.83-.66-15.22-3.9-2.66-1.96-4.67-4.52-5.86-3.9-1.23.63-.56,4.15-.39,5.07,1.14,6.07,4.94,10.65,8.59,14.05,4.88,4.55,9.94,7.45,12.49,8.59.29.13.6.26.92.38h142.27c-.44-1.99-2.79-3.95-4.61-5.46-7.16-5.96-16.85-5.07-19.91-5.07-7.27,0-12.64-1.12-14.54-3.57-.85-1.1-.6-3.78-.3-4.74,1.05-3.33,3.24-6.2,12.73-14.73,7.28-6.54,10.63-8.32,12.26-13.65,2.21-7.23-1.08-17.59-2.16-18.99-2.48-3.22-4.91-9.01-18.59-7.94-20.6,1.61-25.43,16.97-29.24,14.93-11.93-6.37,4.54-25.39,10.25-28.84,10.87-6.56,23.48-5.22,33.5-9.13,3.89-1.51,14.48-5.64,22.25-15.62,2.22-2.84,5.79-9.49,13.61-22.54,3.61-6.01,5.43-8.19,8.94-12.67,2.97-3.8,6.31-6.8,12.14-9.49,4.46-2.05,7.3-4.32,7.17-4.88-.42-1.87-8.65-.28-10.39.24-1.79.54-7.85,2.87-11.76,5.32-4.87,3.06-6,4.61-8.05,5.34-11.32,4.04-13.97-.55-16.79-3.09-2.01-1.81-6.14-10.14-6.75-11.37-1.45-2.94-3.63-6.97-2.12-9.41,1.61-2.6,4.46-2.94,6.97-2.65,3.48.41,3.33,2.97,7.81,4.68,5.47,2.1,11.13,2.09,15.47,1.56,5.17-.63,7.39-1.46,9.52-4.29,1.07-1.42,1.73-3.09,2.15-9.3.68-10.13.01-12.28-.66-19.62-.53-5.86-14.37-33.3-33.67-40.84"/>
        <path class="cls-5" d="M182.23,150.07c2.37,4.12,3.69,6.42,6.37,7.03.99.23,1.52.07,1.83-.07.98-.46,1.48-1.47.9-2.42-1.07-1.77-.91-2.09-4.59-5.12-.62-.51-1.94-1-3.27-1.02-.18,0-1.2-.02-1.46.51-.19.38.09.86.22,1.1Z"/>
        <path class="cls-6" d="M130.62,114.05c1.41.12.35,7.89,3.51,16.79,1.91,5.38,4.63,9.08,6.44,11.52,2.65,3.55,7.49,9.55,11.32,11.13.71.29,2.19,1,2.31,1.53,0,0-1.85.4-3.96-.03-1.98-.4-3.71-.86-5.58-1.95-7.11-4.12-11.91-9.38-13.57-12.14-3.29-5.49-3.39-10.52-3.61-12.49-.27-2.47-.56-7.28,1.66-12.3.88-1.98,1.29-2.06,1.46-2.05Z"/>
        <path class="cls-6" d="M153.24,120.27c-3.06,2.58-2.36,7.44-2.2,8.42.12.69.93,5.02,4.54,7.17,1.06.63,3.42,1.25,7.98,1.74,3.59.38,4.92.2,5.85-.35,2.67-1.57,2.38-6.33,2.34-6.88-.35-4.84-4.04-8.79-7.83-10.54-.83-.38-4.44-2.04-8.27-.8-.68.22-1.54.51-2.41,1.24Z"/>
        <path class="cls-8" d="M153.24,120.27c-3.06,2.58-2.36,7.44-2.2,8.42.12.69,2.49,4.57,4.22,5.15,1.36.45,2.86.66,4.78.35,1.52-.24,2.07-1.02,2.79-1.84.84-.96,1.29-2.79,1.32-3.34.17-2.63-.66-5.88-1.54-7.22-.5-.77-3.13-4.01-6.95-2.77-.68.22-1.54.51-2.41,1.24Z"/>
        <path class="cls-5" d="M169.45,138.49c.28.53.8.77,1.41,1.05.72.33,1.51.68,1.9.36.42-.34.17-1.26-.06-2.09-.28-1.04-.75-1.72-1.13-2.26-.4-.56-.59-.85-.85-.91-1.1-.27-2.71,2.05-2.31,2.67.11.18.35.15.66.5.23.26.27.47.39.69Z"/>
        <line class="cls-4" x1="159.83" y1="86.46" x2="137.36" y2="82.43"/>
      </g>
      <g>
        <path class="cls-7" d="M101.86,113.39c.06.07.77.94,1.87.89,1.02-.05,1.94-.85,2.1-1.94,3.92-5.53,8.14-9.29,11.18-11.64,3.37-2.6,6.66-4.52,9.49-5.93,3.67-1.75,8.19-3.59,13.51-5.09,4.14-1.17,7.98-1.91,11.36-2.38.75-2.63,1.5-5.25,2.25-7.88-2.69-10.39-10.05-33.1-29.62-51.6,0,0-11.94-11.29-41.48-24.99-2.86-1.33-5.76-2.02-5.76-2.02C73.5.03,70.97,0,70.46,0c-5.42-.03-9.5,1.74-10.92,2.42-3.28,1.56-6.28,2.99-7.41,6.21-.73,2.07-.39,4.04-.05,5.25-1.23.6-3.07,1.65-4.88,3.45-1.31,1.31-3.7,3.57-4.35,7.3-.54,3.13.16,5.8.86,7.56-.25,2.67-.15,4.88.04,6.56.15,1.35.28,1.78.27,2.27,0,.24-.04.4-.06.49-.2,1.48.8,3.29.93,3.53.4.73,1.13,2.66,2.6,6.52.33.86.79,2.14,1.28,3.74.16.12.4.27.65.22.79-.18.44-2.24,1.19-3.98,1.19-2.76,4-2.15,4.81-4.42.87-2.45-1.84-4.62-.78-6.15.52-.74,1.53-.71,3.54-.84,1.86-.12,4.43-.37,7.54-.95.46-.51,1.95-2.04,3.52-1.77.65.11,1.12.55,2.03,1.44,1.67,1.62,2.79,2.71,3.33,3.23,1.66,3.75,3.71,5.26,5.37,5.92,1.16.46,2.56.67,3.34,1.87.48.74.36,1.29.37,3.32.01,2.91.02,4.37.41,5.35.77,1.92,1.93,2.02,2.28,3.83.26,1.36-.16,2.46-.34,2.96-1.51,4.31-1.59,12.91.55,19.39.77,2.33.9,1.57,2.52,5.63.62,1.56,1.98,5.75,3.49,11.43"/>
        <path class="cls-3" d="M72,144.42c-.41.07-.93.09-1.2-.21-.98-1.09,2.13-5.34,4.26-8.36,6.66-9.45,4.25-6.93,9.64-14.83,6.71-9.84,19.85-20.08,19.85-20.08,10.33-8.14,19.14-15.09,21.19-13.27,2.36,2.1-4.99,15.21-11.03,23.01-5.94,7.67-10.53,12.81-10.53,12.81-6.5,7.19-5.82,8.4-9.35,11.83-3.94,3.82-10.67,8.02-22.83,9.11Z"/>
        <path class="cls-2" d="M70.8,144.2c-.34-1.47,9.87-2.07,19.21-10.11,7.75-6.67,6.32-11.07,16.01-25.87,6.71-10.25,12.82-15.67,19.33-21.63,4.78-4.37,14.64-11.83,20.99-11.11,1.36.16,3.52.81,6.15-.05,1.35-.44,2.39-1.13,4.3-1.15,1.29-.01,1.42.29,2.66.26,2.2-.05,2.7-1.05,4.36-1.3,2.55-.37,2.96,1.77,6.43,2.27,1.07.16,2.83-.16,6.3-.79,3.77-.69,3.84-.89,4.99-1.02,5.58-.62,10.33,3.44,10.9,3.92.52.43,6.63,5.71,5.27,11.4-.55,2.29-2.63,3.89-6.81,7.1-3.55,2.73-9.37,7.19-12.06,5.45,0,0-.29-.19-2.51-2.99-1.27.21-3.21.55-5.55,1.07-7.68,1.71-19.98,5.43-45.82,21.93-5.04,3.22-11.73,7.65-19.46,13.24-2.77,2.18-6.93,4.98-12.44,7.09-10.64,4.09-21.87,3.92-22.26,2.26Z"/>
        <g>
          <path class="cls-9" d="M176.15,98.66c3.43-.56,6.22-1.53,8.28-2.42,3.36-1.46,6.54-2.84,9.03-6.13,2.03-2.67,2.78-5.53,3.09-7.54.82.83,2.82,3.06,2.65,5.9-.15,2.49-1.89,4.2-3.45,5.63-2.75,2.51-7.34,6.33-14.22,10.62-1.79-2.02-3.58-4.04-5.37-6.06Z"/>
          <g class="cls-1">
            <path class="cls-3" d="M75.3,141.94c-.31-1.43,9.45-1.92,18.44-9.64,7.46-6.4,6.13-10.69,15.51-24.97,6.5-9.89,12.38-15.09,18.65-20.82,4.61-4.2,14.08-11.35,20.14-10.59,1.3.16,3.35.82,5.88.01,1.29-.41,2.29-1.08,4.12-1.08,1.23,0,1.36.3,2.53.28,2.1-.03,2.59-1,4.18-1.22,2.44-.34,2.81,1.75,6.12,2.27,1.02.16,2.7-.13,6.02-.71,3.61-.64,3.68-.83,4.77-.94,5.34-.55,9.83,3.43,10.38,3.91.49.43,6.28,5.61,4.94,11.11-.54,2.22-2.55,3.75-6.56,6.83-3.42,2.61-9.01,6.9-11.57,5.18-.13-.15-.27-.29-.4-.44-.75-.81-1.5-1.62-2.25-2.41-9.68.54-17.53,2.14-23.04,3.57-10.75,2.79-22.28,5.86-32.8,15.4-6.14,5.57-9.79,11.55-11.84,15.5-2.67,2.09-6.66,4.77-11.94,6.77-10.2,3.87-20.92,3.61-21.28,2Z"/>
          </g>
        </g>
      </g>
    </g>
  </g>
</svg>