<?xml version="1.0" encoding="UTF-8"?>
<svg id="Layer_2" data-name="Layer 2" xmlns="http://www.w3.org/2000/svg" xmlns:xlink="http://www.w3.org/1999/xlink" viewBox="0 0 246.02 367.61">
  <defs>
    <style>
      .cls-1 {
        clip-path: url(#clippath);
      }

      .cls-2 {
        fill: none;
      }

      .cls-2, .cls-3, .cls-4, .cls-5, .cls-6, .cls-7, .cls-8, .cls-9, .cls-10 {
        stroke-width: 0px;
      }

      .cls-11, .cls-7 {
        fill: #f39324;
      }

      .cls-3 {
        fill: #1c1a37;
      }

      .cls-12, .cls-10 {
        fill: #fff;
      }

      .cls-4 {
        fill: #293b50;
      }

      .cls-5 {
        fill: #2b2c62;
      }

      .cls-13 {
        clip-path: url(#clippath-1);
      }

      .cls-14 {
        clip-path: url(#clippath-2);
      }

      .cls-6 {
        fill: #2e4d9c;
      }

      .cls-8 {
        fill: #725741;
      }

      .cls-9 {
        fill: #a04c17;
      }
    </style>
    <clipPath id="clippath">
      <path class="cls-7" d="M203.33,365.43c3.05-.05-1.85-9.73-2.71-10.78-3.34-4.04-8.29-6.91-13.57-7.32-3.47-.27-7.08.63-10.53.96-5.5.54-14.77.64-9.52-7.19,5.57-8.32,13.67-14.88,18.6-23.55,9.29-16.35-1.67-36.2-22.35-30.43-1.48.41-2.93,1.03-4.47,1.12-1.54.08-3.26-.54-3.87-1.92-.39-.91-.23-1.95.06-2.89.98-3.12,3.16-5.53,5.88-7.27,9.53-6.09,20.34-10.91,31.14-14.73,11.14-3.94,22.64-6.95,33.37-11.96,4.16-1.94,8.29-4.26,11.12-7.87,2.69-3.41,4.01-7.87,3.64-12.2-.1-1.12-.34-2.31-1.13-3.12-.93-.95-2.42-1.15-3.72-.86-1.3.28-2.47.96-3.66,1.56-7.29,3.7-15.99,4.54-23.85,2.31-1.3-.37-2.62-.84-3.64-1.73-3.96-3.43-4.71-8.94-5.35-13.87-.7-5.37-3.74-10.96-7.14-15.22-2.78-3.48-6.69-5.87-9.34-9.48-3.83-5.22-2.15-10.35.95-16.03,5.29-9.71,21.84-23.4,15.42-34.2-2.95-4.97-5.56-8.66-9.41-11.08-4.15-2.61-8.11-2.98-9.89-3.16-.55-.06-13.1-1.16-21.94,7.06-8.05,7.48-4.47,14.73-12.21,28.82-2.09,3.8-5.04,8.19-13.52,16.72-23.18,23.3-36.68,28-53.34,43.27-16.87,15.45-26.66,37.14-29.26,59.39-1.88,16.03.96,31.7,6.22,46.86,1.35,3.87,8.3,15.18,4.19,18.21-3.95,2.9-14.18-4.45-16.52-7.03-.51-.56-1.05-1.19-1.79-1.36-2.13-.5-3.02,2.6-2.76,4.73,1.06,8.53,4.05,14.51,11.4,19.64,6.37,4.46,14.36,6.1,22.03,6.77l131.48-2.18Z"/>
    </clipPath>
    <clipPath id="clippath-1">
      <path class="cls-7" d="M183.77,108.53c-5.25-10.77-8.62-21.47-14.68-31.85-6.61-11.32-13.51-22.67-22.78-32.13-9.91-10.12-22.81-16.99-36.12-22.22-13.31-5.23-27.21-8.81-40.63-13.75-2.74.14-7.62-2.41-10.21-3.35-3.8-1.38-6.96-2.95-10.27-5.22,4.63,11.62,9.14,23.04,17.51,32.78,8.91,10.36,20.41,18.42,33.51,22.92,11.97,4.11,23.62,9.98,35.35,14.86,10.19,4.24,18.89,11.93,25.65,20.38,6.26,7.81,13.16,17.79,13.96,27.91.54,6.9-6.15,2.34-9.64-.12-9.35-6.6-15.89-16.13-24.28-23.74-8.26-7.49-17.89-13.38-28.09-18.01-20.41-9.27-42.69-13.65-64.57-18.23-8.65-1.81-17.08-4.47-25.28-7.7-4.13-1.63-8.19-2.53-11.96-4.76-1.84-1.09-10.88-5.24-11.24-7.22.95,5.19,2.98,9.97,4.87,14.87,10.78,27.88,34.96,46.55,65.21,49.64,15.94,1.63,31.62-1.17,47.5-.88,11.82.22,26.27,1.7,33.51,12.13,9.68,13.94,6.02,31.61,10.05,47.17,3.07,11.85,11.04,22.87,22.51,28.19,12.07,5.6,36.87,8.72,40.48-8.6,1.63-7.83-.14-15.75-1.3-23.5-.44-2.91-.79-5.85-1.76-8.63-2.33-6.74-8.4-14.26-14.01-18.69-5.06-3.99-11-6.87-15.78-11.18-3.17-2.87-5.48-6.9-7.51-11.06Z"/>
    </clipPath>
    <clipPath id="clippath-2">
      <path class="cls-10" d="M186.16,155.02c1.95-.46,4.23-.08,6.2,1.17,5.35,3.38,8.65,11.32,10.27,17.11-1.75-2.81-5.16-4.55-8.53-4.34-2.73.17-5.56.57-8.05-.82-2.55-1.43-4.36-3.99-4.42-6.97-.07-3.47,1.93-5.54,4.52-6.15Z"/>
    </clipPath>
  </defs>
  <g id="Layer_1-2" data-name="Layer 1">
    <g>
      <g>
        <path class="cls-9" d="M184.65,265c-4.43,2.69-7.92,2.91-14.75,7.18-2,1.25-4.43,3.16-5.51,6.09-.32.87-.88,2.47-.22,4.13.53,1.33,1.59,2.05,1.88,2.25,1.08.72,1.63,1.14,3.25,1.31,2.34.24,3.19.16,3.81.32,2.8.73-6.8,16.07-19.3,17.13-1.78.15-9.65.82-14.27-4.56-4.88-5.69-2.65-14.06-2.25-15.58,4.28-16.09,26.01-21.36,31.73-22.75,1.97-.48,12.48.45,16.59.22,2.54-.14-.6,4.04-.97,4.27Z"/>
        <path class="cls-9" d="M58.31,333.1c-3.21-8.74-10.63-23.44-11.5-33.65-1.47-17.32-3.66-40.5,11.47-63.49,7.09-10.78,18.06-19.1,39.99-35.74,6.19-4.7,16.14-9.14,25.89-18.16,10-9.26,15.07-15.07,15.07-15.07,3.79-4.35,5.53-6.83,5.99-6.57,1.34.77-10.62,23.23-16.81,35.94-28.86,59.2-31.17,108.6-59.31,131.38-4.48,3.63-8.6,11.35-10.79,5.37Z"/>
        <g>
          <path class="cls-11" d="M203.33,365.43c3.05-.05-1.85-9.73-2.71-10.78-3.34-4.04-8.29-6.91-13.57-7.32-3.47-.27-7.08.63-10.53.96-5.5.54-14.77.64-9.52-7.19,5.57-8.32,13.67-14.88,18.6-23.55,9.29-16.35-1.67-36.2-22.35-30.43-1.48.41-2.93,1.03-4.47,1.12-1.54.08-3.26-.54-3.87-1.92-.39-.91-.23-1.95.06-2.89.98-3.12,3.16-5.53,5.88-7.27,9.53-6.09,20.34-10.91,31.14-14.73,11.14-3.94,22.64-6.95,33.37-11.96,4.16-1.94,8.29-4.26,11.12-7.87,2.69-3.41,4.01-7.87,3.64-12.2-.1-1.12-.34-2.31-1.13-3.12-.93-.95-2.42-1.15-3.72-.86-1.3.28-2.47.96-3.66,1.56-7.29,3.7-15.99,4.54-23.85,2.31-1.3-.37-2.62-.84-3.64-1.73-3.96-3.43-4.71-8.94-5.35-13.87-.7-5.37-3.74-10.96-7.14-15.22-2.78-3.48-6.69-5.87-9.34-9.48-3.83-5.22-2.15-10.35.95-16.03,5.29-9.71,21.84-23.4,15.42-34.2-2.95-4.97-5.56-8.66-9.41-11.08-4.15-2.61-8.11-2.98-9.89-3.16-.55-.06-13.1-1.16-21.94,7.06-8.05,7.48-4.47,14.73-12.21,28.82-2.09,3.8-5.04,8.19-13.52,16.72-23.18,23.3-36.68,28-53.34,43.27-16.87,15.45-26.66,37.14-29.26,59.39-1.88,16.03.96,31.7,6.22,46.86,1.35,3.87,8.3,15.18,4.19,18.21-3.95,2.9-14.18-4.45-16.52-7.03-.51-.56-1.05-1.19-1.79-1.36-2.13-.5-3.02,2.6-2.76,4.73,1.06,8.53,4.05,14.51,11.4,19.64,6.37,4.46,14.36,6.1,22.03,6.77l131.48-2.18Z"/>
          <g class="cls-1">
            <path class="cls-7" d="M38.27,201.52c2.84-.77,5.78-1.18,8.73-1.09,7.18.2,14.47,3.61,18.14,9.64-35.84,30.03-38.44,80.51-29.43,122.51,1.98,9.23-1.57,14.3-9.99,7.96-6.07-4.57-9.54-10.3-12.96-16.9C3.83,306.42-.22,286.84.78,267.56c1.16-22.44,5.38-47.43,26.01-60.79,3.53-2.28,7.42-4.15,11.48-5.25Z"/>
            <path class="cls-7" d="M77.6,372.84c-1.45.99-2.9,1.87-3.94,2.61-2.36,1.68-4.95,3.44-7.87,3.4-1.72-.03-3.36-.69-4.94-1.36-5.15-2.2-10.13-4.51-14.71-7.64-4.5-3.07-8.8-4.98-11.63-9.91-5.81-10.15-2.09-19.43,4.02-28.41.45-.67.96-1.35,1.69-1.71s1.77-.24,2.19.45c.26.43.22.96.2,1.46-.47,9.8,1.64,19.23,8.9,26.47,6.75,6.73,15,8.73,24.23,9.38,1.97.14,3.98.55,5.97.75.19.02.41.05.52.22.12.18.03.41-.07.6-.94,1.74-2.97,2.63-4.56,3.71Z"/>
          </g>
        </g>
        <g>
          <g>
            <path class="cls-11" d="M183.77,108.53c-5.25-10.77-8.62-21.47-14.68-31.85-6.61-11.32-13.51-22.67-22.78-32.13-9.91-10.12-22.81-16.99-36.12-22.22-13.31-5.23-27.21-8.81-40.63-13.75-2.74.14-7.62-2.41-10.21-3.35-3.8-1.38-6.96-2.95-10.27-5.22,4.63,11.62,9.14,23.04,17.51,32.78,8.91,10.36,20.41,18.42,33.51,22.92,11.97,4.11,23.62,9.98,35.35,14.86,10.19,4.24,18.89,11.93,25.65,20.38,6.26,7.81,13.16,17.79,13.96,27.91.54,6.9-6.15,2.34-9.64-.12-9.35-6.6-15.89-16.13-24.28-23.74-8.26-7.49-17.89-13.38-28.09-18.01-20.41-9.27-42.69-13.65-64.57-18.23-8.65-1.81-17.08-4.47-25.28-7.7-4.13-1.63-8.19-2.53-11.96-4.76-1.84-1.09-10.88-5.24-11.24-7.22.95,5.19,2.98,9.97,4.87,14.87,10.78,27.88,34.96,46.55,65.21,49.64,15.94,1.63,31.62-1.17,47.5-.88,11.82.22,26.27,1.7,33.51,12.13,9.68,13.94,6.02,31.61,10.05,47.17,3.07,11.85,11.04,22.87,22.51,28.19,12.07,5.6,36.87,8.72,40.48-8.6,1.63-7.83-.14-15.75-1.3-23.5-.44-2.91-.79-5.85-1.76-8.63-2.33-6.74-8.4-14.26-14.01-18.69-5.06-3.99-11-6.87-15.78-11.18-3.17-2.87-5.48-6.9-7.51-11.06Z"/>
            <g class="cls-13">
              <path class="cls-7" d="M35.61-24.19c-.63.46-1.27.91-1.9,1.37C25.73-17.07,20.74-7.52,13.94-.28,8.63,5.38,3.57,10.71.83,18.12c-2.18,5.9-2.74,11.28-1.69,16.49.8,3.95,2.51,7.8,5.15,11.71,4.79,7.1,8.88,14.28,15.53,19.94,15.28,13.01,34.31,21.77,54.32,25.02,12.74,2.07,25.77,3.41,38.59,4.96,7.95.96,18.28,1.43,25.39,5.11,9.8,5.08,16.91,13.13,19.22,23.94,1.16,5.4.99,11.06-.44,16.4-1.23,4.61-1.33,9.2-2.86,13.76-.95,2.84-2.16,5.57-3.52,8.25-1.23,2.41-1.52,4.91-3.29,7.1-3.54,4.37-8.56,7.67-12.33,11.89-4.57,5.11-15.39,13.51-22.92,12-4.27-.86-6.59-6.45-9.9-8.89-13.23-9.77-28.85-17.01-42.51-26.35-13.09-8.94-26.07-18.95-33.74-32.64-8.64-15.42-9.65-33.93-17.27-49.85-5.35-11.16-13.81-20.74-18.7-32.1-2.79-6.47-1.66-12.66-.53-19.31.59-3.46,1.18-6.95,2.39-10.26C-6.03,9.05-.81,5.43,2.16-.12c2.69-5.02,2.74-9.54,7.59-13.73,6.39-5.52,14.81-8.77,21.78-13.65,2.75-1.93,5.7-3.93,9.08-4.14.61-.04,1.31.01,1.72.46.88.94-.27,2.35-1.31,3.11-1.64,1.18-4.6,2.55-5.2,4.42s1.04,5.98,1.37,7.88c.89,5.12,1.79,10.24,3.07,15.28,3.93,15.45,11.88,30.38,24.72,40.17,5.68,4.34,12.16,7.57,18.65,10.67,16.95,8.1,33.36,17.19,50.19,25.38,8.86,4.32,14.9,12.56,19.8,20.68,4.99,8.26,8.45,19.12,18.2,23.13,4.25,1.74,3.26-3.72,3.06-6.01-.48-5.68-3.09-10.8-5.45-15.92-2.5-5.42-5.55-10.59-9.17-15.37-14.53-19.18-36.87-29.74-58.43-39.61-9.71-4.45-19.32-9.28-27.86-15.62-6.56-4.87-12.49-10.68-16.95-17.48-3.66-5.58-10-10.59-11.05-17.47-.54-3.54-.02-6.94-1.3-10.46-1.29-3.55-5.82-9.57-9.5-10.98-2.4-.92-5.8.32-5.99,2.84"/>
            </g>
          </g>
          <path class="cls-2" d="M187.74,154.48c4.95.6,8.45,5.01,7.83,9.85-.63,4.84-5.15,8.27-10.1,7.67-4.95-.6-8.45-5.01-7.83-9.85.63-4.84,5.15-8.27,10.1-7.67Z"/>
          <path class="cls-2" d="M187.74,154.48c4.95.6,8.45,5.01,7.83,9.85-.63,4.84-5.15,8.27-10.1,7.67-4.95-.6-8.45-5.01-7.83-9.85.63-4.84,5.15-8.27,10.1-7.67Z"/>
          <g>
            <path class="cls-12" d="M186.16,155.02c1.95-.46,4.23-.08,6.2,1.17,5.35,3.38,8.65,11.32,10.27,17.11-1.75-2.81-5.16-4.55-8.53-4.34-2.73.17-5.56.57-8.05-.82-2.55-1.43-4.36-3.99-4.42-6.97-.07-3.47,1.93-5.54,4.52-6.15Z"/>
            <g class="cls-14">
              <ellipse class="cls-3" cx="192.86" cy="163.98" rx="7" ry="6.84" transform="translate(-7.46 9.2) rotate(-2.68)"/>
              <path class="cls-8" d="M198.26,165.38c-.31,1.48-1.11,2.47-2.55,3-.79.29-1.59.55-2.41.77-.12.03-.26.07-.34.17-.07.08-.1.18-.13.28-.13.47-.32,1.13.02,1.57.25.33.62.25.99.21,1.29-.12,2.52.1,3.71.6,1.56.65,2.92,1.68,4.15,2.81.46.42,1.14.88,1.65.51.22-.16.32-.44.39-.69.78-2.67.69-5.58-.26-8.19-.62-1.72-1.61-3.3-2.88-4.64-.57-.6-1.1-1.3-1.84-1.72-.6-.35-1.38-.19-1.48.62-.02.17.02.34.09.5.12.31.3.6.45.9.51,1.06.66,2.21.43,3.3Z"/>
            </g>
          </g>
          <path class="cls-10" d="M157.43,131.6s4.62,5.4,5.48,13.28c.67,6.23-2.11,14.9,2.16,25.91,3.84,9.88,13.02,15.72,22.22,20.9,0,0-3.22-1.52-8.89-3.61-5.68-2.09-17.86-9.16-21.77-22.01-3.9-12.85,1.62-24.38.8-34.46Z"/>
        </g>
        <path class="cls-8" d="M211.09,180.69s-.04-.03-.06-.05c1.83,0,3.35.5,4.92,1.34,2.35,1.25,6.72,3.68,4.59,6.76-1.81-1.84-3.74-3.56-5.78-5.15-1.22-.95-2.48-1.9-3.68-2.9Z"/>
      </g>
      <g>
        <path class="cls-4" d="M212.66,130.15c10.95-.44,21.9-.88,32.85-1.32.48,1.69.84,4.1.01,6.62-1.77,5.34-7.72,7.55-11.45,8.93-2.17.8-5.17,1.62-8.91,1.8-12.22.7-24.45,1.4-36.67,2.09,8.05-6.04,16.11-12.08,24.16-18.12Z"/>
        <path class="cls-5" d="M212.4,128.88c10.95-.44,21.9-.88,32.85-1.32.48,1.69.84,4.1.01,6.62-1.77,5.34-7.72,7.55-11.45,8.93-2.17.8-5.17,1.62-8.91,1.8-12.22.7-24.45,1.4-36.67,2.09,8.05-6.04,16.11-12.08,24.16-18.12Z"/>
        <path class="cls-6" d="M217.86,128.85s-11.64-25.6-21.08-27.03c-1.45-.22-5.98-1.12-11.31-1.47-3.96-.26-7.24-.21-9.49-.12-3.12.58-7.52,1.67-12.46,3.9-4.07,1.84-8.66,3.92-12.88,8.31-7.01,7.29-8.66,16.43-9.13,19.25-2.27,13.53,3.02,24.42,4.7,27.59,2.64-.44,6.43-1.12,10.96-2.05,9.07-1.88,19.36-4.46,25.2-6.41,6.78-2.26,19.75-7.71,35.48-21.98Z"/>
      </g>
    </g>
  </g>
</svg>